<svg width="44" height="44" viewBox="0 0 44 44" fill="none" xmlns="http://www.w3.org/2000/svg">
<path d="M7.29928 42H14.6496C15.137 42 15.6044 41.8084 15.949 41.4673C16.2936 41.1262 16.4872 40.6636 16.4872 40.1813V29.2689C16.4872 28.7865 16.6808 28.3239 17.0254 27.9828C17.3701 27.6418 17.8375 27.4501 18.3248 27.4501H25.6752C26.1625 27.4501 26.6299 27.6418 26.9746 27.9828C27.3192 28.3239 27.5128 28.7865 27.5128 29.2689V40.1813C27.5128 40.6636 27.7064 41.1262 28.051 41.4673C28.3956 41.8084 28.863 42 29.3504 42H36.7007C37.1881 42 37.6555 41.8084 38.0001 41.4673C38.3447 41.1262 38.5383 40.6636 38.5383 40.1813V23.8127H39.968C40.3415 23.8554 40.7192 23.7827 41.0494 23.6046C41.3795 23.4266 41.646 23.1518 41.8122 22.818C41.9784 22.4842 42.0363 22.1077 41.9779 21.74C41.9194 21.3724 41.7476 21.0317 41.4858 20.7645L23.5509 2.64627C23.349 2.44169 23.1077 2.27914 22.8414 2.16815C22.575 2.05717 22.289 2 22 2C21.711 2 21.425 2.05717 21.1586 2.16815C20.8923 2.27914 20.651 2.44169 20.4491 2.64627L2.51419 20.7645C2.25245 21.0317 2.08058 21.3724 2.02215 21.74C1.96371 22.1077 2.02157 22.4842 2.18779 22.818C2.35401 23.1518 2.62046 23.4266 2.95063 23.6046C3.28079 23.7827 3.65852 23.8554 4.03204 23.8127H5.46169V40.1813C5.46169 40.6636 5.65529 41.1262 5.99991 41.4673C6.34452 41.8084 6.81192 42 7.29928 42Z" stroke="white" stroke-width="3"/>
</svg>
