<svg width="40" height="40" viewBox="0 0 40 40" fill="none" xmlns="http://www.w3.org/2000/svg">
<path d="M30.7463 40H10.8719C6.2264 40 4.59584 37.6134 4.59584 35.3807V23.0627H4.1036C3.31231 23.0591 2.53878 22.8276 1.87537 22.3958C1.21196 21.9641 0.686705 21.3503 0.362319 20.6279C0.0379334 19.9054 -0.0718767 19.1048 0.0459995 18.3215C0.163876 17.5383 0.504457 16.8056 1.02708 16.2108L12.0718 3.58487C13.0621 2.45836 14.2808 1.55599 15.6468 0.937853C17.0128 0.319716 18.4947 0 19.9938 0C21.4929 0 22.9748 0.319716 24.3408 0.937853C25.7068 1.55599 26.9255 2.45836 27.9159 3.58487L38.9606 16.2108C39.4918 16.8012 39.8377 17.535 39.9553 18.3208C40.073 19.1066 39.957 19.9096 39.622 20.6299C39.2986 21.3586 38.7697 21.977 38.1003 22.4091C37.4308 22.8413 36.6499 23.0685 35.8533 23.0627H35.361V35.3807C35.361 36.6058 34.8749 37.7808 34.0094 38.6471C33.144 39.5133 31.9702 40 30.7463 40ZM19.9784 3.04596C18.916 3.04575 17.8656 3.27223 16.8975 3.71032C15.9293 4.1484 15.0656 4.78802 14.3638 5.58655L3.31909 18.2125C3.17565 18.3625 3.07999 18.5517 3.04426 18.7562C3.00854 18.9608 3.03436 19.1713 3.11844 19.3611C3.20253 19.5509 3.34108 19.7113 3.51649 19.8221C3.69191 19.9329 3.89627 19.989 4.1036 19.9832H6.1341C6.54208 19.9832 6.93334 20.1454 7.22182 20.4342C7.5103 20.723 7.67236 21.1146 7.67236 21.523V35.3807C7.67236 36.7203 9.68748 36.9205 10.8873 36.9205H30.7463C31.1542 36.9205 31.5455 36.7583 31.834 36.4695C32.1225 36.1808 32.2845 35.7891 32.2845 35.3807V21.523C32.2854 21.3193 32.3266 21.1177 32.4058 20.9301C32.485 20.7424 32.6007 20.5724 32.746 20.4298C33.0325 20.1453 33.4192 19.9849 33.8228 19.9832H35.8379C36.0393 19.9833 36.2364 19.9252 36.4056 19.8158C36.5747 19.7065 36.7088 19.5506 36.7916 19.3669C36.8745 19.1832 36.9026 18.9795 36.8725 18.7801C36.8425 18.5808 36.7557 18.3944 36.6224 18.2433L25.5777 5.61734C24.8811 4.81438 24.0212 4.1696 23.0556 3.72614C22.09 3.28269 21.0408 3.05079 19.9784 3.04596Z" fill="white"/>
</svg>
