<svg width="40" height="40" viewBox="0 0 40 40" fill="none" xmlns="http://www.w3.org/2000/svg">
<path d="M16.8578 27.8356C16.453 28.2547 16.229 28.816 16.2341 29.3987C16.2391 29.9813 16.4728 30.5387 16.8848 30.9507C17.2969 31.3627 17.8542 31.5964 18.4369 31.6015C19.0195 31.6066 19.5809 31.3826 20 30.9778L29.9689 20.7867C30.0724 20.6835 30.1545 20.5608 30.2105 20.4259C30.2665 20.2909 30.2953 20.1461 30.2953 20C30.2953 19.8539 30.2665 19.7091 30.2105 19.5742C30.1545 19.4392 30.0724 19.3165 29.9689 19.2133L19.9511 9.07556C19.532 8.67076 18.9707 8.44677 18.388 8.45184C17.8053 8.4569 17.248 8.69061 16.836 9.10263C16.4239 9.51464 16.1902 10.072 16.1852 10.6547C16.1801 11.2373 16.4041 11.7987 16.8089 12.2178L22.2222 17.7778H2.22222C1.63285 17.7778 1.06762 18.0119 0.650874 18.4287C0.234126 18.8454 0 19.4106 0 20C0 20.5894 0.234126 21.1546 0.650874 21.5713C1.06762 21.9881 1.63285 22.2222 2.22222 22.2222H22.2222L16.8578 27.8356ZM35.5556 0H15.5556C14.9662 0 14.401 0.234126 13.9842 0.650874C13.5675 1.06762 13.3333 1.63285 13.3333 2.22222C13.3333 2.81159 13.5675 3.37682 13.9842 3.79357C14.401 4.21032 14.9662 4.44444 15.5556 4.44444H33.3333C33.9227 4.44444 34.4879 4.67857 34.9047 5.09532C35.3214 5.51207 35.5556 6.0773 35.5556 6.66667V33.3333C35.5556 33.9227 35.3214 34.4879 34.9047 34.9047C34.4879 35.3214 33.9227 35.5556 33.3333 35.5556H15.5556C14.9662 35.5556 14.401 35.7897 13.9842 36.2064C13.5675 36.6232 13.3333 37.1884 13.3333 37.7778C13.3333 38.3671 13.5675 38.9324 13.9842 39.3491C14.401 39.7659 14.9662 40 15.5556 40H35.5556C36.7343 40 37.8648 39.5317 38.6983 38.6983C39.5317 37.8648 40 36.7343 40 35.5556V4.44444C40 3.2657 39.5317 2.13524 38.6983 1.30175C37.8648 0.468252 36.7343 0 35.5556 0Z" fill="white"/>
</svg>
